<svg class="svg-icon" style="width: 1em; height: 1em;vertical-align: middle;fill: currentColor;overflow: hidden;" viewBox="0 0 1024 1024" version="1.1" xmlns="http://www.w3.org/2000/svg"><path d="M565.333333 736c-42.666667 0-83.626667-18.346667-113.066666-49.066667l-50.773334 170.666667-3.413333 11.093333-1.706667-0.853333c-10.666667 17.493333-29.013333 28.16-49.92 28.16-32 0-58.453333-26.453333-58.453333-58.88 0-2.56 0.426667-5.12 0.853333-7.68l-0.853333-0.426667 2.56-9.386666 98.56-296.533334s-10.666667-32.426667-10.666667-78.506666c0-91.733333 49.493333-119.466667 88.746667-119.466667 39.68 0 75.946667 14.08 75.946667 69.973333 0 71.68-47.786667 108.373333-47.786667 159.573334 0 40.106667 32.426667 72.106667 71.68 72.106666 124.586667 0 168.96-93.44 168.96-181.333333 0-116.48-100.693333-210.773333-224-210.773333-123.733333 0-224 94.293333-224 210.773333 0 35.84 10.666667 71.68 29.013333 102.826667 4.693333 8.533333 7.253333 17.92 7.253334 27.733333a53.333333 53.333333 0 0 1-53.333334 53.333333c-18.773333 0-36.266667-10.666667-46.08-26.453333a308.309333 308.309333 0 0 1-43.52-157.44C181.333333 270.08 329.813333 128 512 128s330.666667 142.08 330.666667 317.44c0 139.946667-87.04 290.56-277.333334 290.56z" fill="" /></svg>